<svg xmlns="http://www.w3.org/2000/svg" viewBox="0 0 48 48"><path fill="#9C2C0A" d="M16.717 12.397H18.717V21.097H16.717z" transform="rotate(-20.099 17.716 16.748)"/><path fill="#9C2C0A" d="M25.933 19.748H34.632999999999996V21.748H25.933z" transform="rotate(-69.904 30.283 20.748)"/><path fill="#D32F2F" d="M39.2,20.8L24,15.6c-0.5-0.2-0.8-0.7-0.6-1.3l1.9-5.7C25.5,8.1,26,7.8,26.6,8l15.2,5.1c0.5,0.2,0.8,0.7,0.6,1.3l-1.9,5.7C40.3,20.7,39.7,20.9,39.2,20.8z"/><path fill="#EF9A9A" d="M31.902 13.408H33.902V15.408H31.902z" transform="rotate(-71.355 32.902 14.409)"/><path fill="#EF9A9A" d="M35.694 14.71H37.694V16.71H35.694z" transform="rotate(-71.355 36.695 15.71)"/><path fill="#EF9A9A" d="M28.109 12.106H30.109V14.106H28.109z" transform="rotate(-71.355 29.11 13.107)"/><path fill="#607D8B" d="M20 20l-1.9-.5-1.7 5.8c-.1.4-.4.8-.7 1L12.2 29H8c-2.2 0-4 1.8-4 4v10h10v-8.8l5.4-5.8c.2-.2.4-.5.5-.8l1.5-5.2C21.7 21.4 21.1 20.3 20 20zM40 33h-4.7l-3-2.7c-.3-.3-.5-.6-.6-1L30 22.5 28 23c-1.1.3-1.7 1.4-1.5 2.4l1.5 6.2c.1.3.2.6.5.9l4.4 4.9V43h11v-6C44 34.8 42.2 33 40 33z"/><g><path fill="#FFB74D" d="M9 19A4 4 0 1 0 9 27 4 4 0 1 0 9 19zM38 23A4 4 0 1 0 38 31 4 4 0 1 0 38 23z"/></g><path fill="#F44336" d="M24.5,12.1L9.3,17.2c-0.5,0.2-1.1-0.1-1.3-0.6l-1.9-5.7C6,10.3,6.2,9.8,6.8,9.6L22,4.5c0.5-0.2,1.1,0.1,1.3,0.6l1.9,5.7C25.3,11.3,25,11.9,24.5,12.1z"/><g><path fill="#FFCDD2" d="M14.592 9.809H16.592V11.809H14.592z" transform="rotate(-18.594 15.593 10.809)"/><path fill="#FFCDD2" d="M18.416 8.603H20.416V10.603H18.416z" transform="rotate(-18.594 19.416 9.602)"/><path fill="#FFCDD2" d="M10.801 11.111H12.801V13.111H10.801z" transform="rotate(-18.594 11.8 12.11)"/></g></svg>