<svg xmlns="http://www.w3.org/2000/svg" viewBox="0 0 48 48"><path fill="#e57373" d="M42.6,9.1L39,5.5c-0.6-0.6-1.5-0.6-2,0l-1.7,1.7l5.7,5.7l1.7-1.7C43.1,10.5,43.1,9.6,42.6,9.1"/><path fill="#4caf50" d="M6.9,35.4L32.4,10l5.7,5.7L12.6,41.1L6.9,35.4z"/><rect width="36.7" height="3" x="4.386" y="23.765" fill="#388e3c" transform="rotate(-45.001 22.736 25.266)"/><path fill="#b0bec5" d="M40.9,12.8L38,15.6L32.4,10l2.8-2.8L40.9,12.8z"/><path fill="#ffc107" d="M6.9,35.4L5,43l7.6-1.9L6.9,35.4z"/><path fill="#37474f" d="M6,39.2L5,43l3.8-1L6,39.2z"/><g><path fill="#edb656" d="M6.586,12.203c7.227,6.774,13.219,12.3,20.527,19.156l1.414-1.414l6.215,6.215 c0.283-0.113,0.58-0.283,0.856-0.559c0.085-0.085,0.884-0.912,0.707-2.121c-1.655-2.121-3.295-4.243-4.95-6.364 c-6.884-7.338-12.427-13.349-19.24-20.617c-0.428-0.457-0.962-0.84-1.57-0.988C9.157,5.173,7.654,5.563,6.607,6.61 c-0.24,0.24-0.453,0.509-0.615,0.799c-0.48,0.794-0.678,1.721-0.575,2.629C5.512,10.872,5.973,11.629,6.586,12.203z"/><path fill="#37474f" d="M36.29,33.495c2.927,0.245,4.267,1.252,4.95,2.121c0.891,1.134,0.864,2.287,2.121,3.536 c0.925,0.918,1.993,1.34,2.713,1.55c-3.559,2.753-8.008,2.792-10.491,0.572c-1.873-1.674-2.086-4.151-2.121-4.95"/><path fill="#d19b43" d="M6.502,12.124c7.265,6.81,13.275,12.353,20.611,19.235l1.414-1.414L5.992,7.409 c-0.567,0.939-0.741,2.064-0.488,3.123C5.651,11.149,6.039,11.69,6.502,12.124z"/><path fill="#90a4ae" d="M27.113,31.358c2.121,1.655,4.243,3.295,6.364,4.95c0.085,0.014,0.636,0.085,1.266-0.149 l-6.215-6.215L27.113,31.358z"/><path fill="#b0bec5" d="M28.527,29.944l6.215,6.215c0.283-0.113,0.58-0.283,0.856-0.559 c0.085-0.085,0.884-0.912,0.707-2.121c-1.655-2.121-3.295-4.243-4.95-6.364L28.527,29.944z"/></g></svg>