<svg xmlns="http://www.w3.org/2000/svg" viewBox="0 0 48 48"><path fill="#3f51b5" d="M26,25l-3-3L6.609,36.965c-0.813,0.813-0.813,2.137,0,2.949l1.477,1.477 c0.813,0.813,2.133,0.813,2.949,0L26,25z"/><path fill="#2196f3" d="M41.403,13.768l-7.172-7.172c-0.781-0.781-2.047-0.781-2.828,0l-6.646,6.646 C23.632,14.368,23,15.894,23,17.485V22l3,3h4.515c1.591,0,3.117-0.632,4.243-1.757l6.646-6.646 C42.184,15.816,42.184,14.549,41.403,13.768z M27,16c-0.256,0-0.512-0.098-0.707-0.293c-0.391-0.391-0.391-1.023,0-1.414l5-5 c0.391-0.391,1.023-0.391,1.414,0s0.391,1.023,0,1.414l-5,5C27.512,15.902,27.256,16,27,16z M30,19 c-0.256,0-0.512-0.098-0.707-0.293c-0.391-0.391-0.391-1.023,0-1.414l5-5c0.391-0.391,1.023-0.391,1.414,0s0.391,1.023,0,1.414 l-5,5C30.512,18.902,30.256,19,30,19z M38.707,16.707l-5,5C33.512,21.902,33.256,22,33,22s-0.512-0.098-0.707-0.293 c-0.391-0.391-0.391-1.023,0-1.414l5-5c0.391-0.391,1.023-0.391,1.414,0S39.098,16.316,38.707,16.707z"/></svg>