<svg xmlns="http://www.w3.org/2000/svg" viewBox="0 0 48 48"><path fill="#43a047" d="M23,36v8h2v-8H23z"/><path fill="#4caf50" d="M28 19.803c0 8.301-4 17.148-4 17.148s-4-8.41-4-17.148S24 2 24 2 28 11.502 28 19.803zM16.556 40.837C20.444 40.184 24 37 24 37s-4.222-1.499-8.222-.846S8 39.966 8 39.966 12.778 41.491 16.556 40.837z"/><path fill="#43a047" d="M16.556,40.837C20.444,40.184,24,37,24,37L8,39.966C8,39.966,12.778,41.491,16.556,40.837z"/><path fill="#4caf50" d="M11.318,33.836C16.799,36.673,24,37,24,37s-4.192-5.564-9.888-8.618S1,25,1,25 S5.836,31,11.318,33.836z"/><path fill="#43a047" d="M11.318,33.836C16.799,36.673,24,37,24,37L1,25C1,25,5.836,31,11.318,33.836z"/><path fill="#4caf50" d="M12.881,25.667C16.943,32.111,24,37,24,37s-1.283-8.333-5.56-15.111S7,10,7,10 S8.925,19.222,12.881,25.667z"/><path fill="#43a047" d="M12.881,25.667C16.943,32.111,24,37,24,37L7,10C7,10,8.925,19.222,12.881,25.667z"/><path fill="#4caf50" d="M40,39.966c0,0-3.778-3.158-7.778-3.812S24,37,24,37s3.556,3.184,7.444,3.837 C35.222,41.491,40,39.966,40,39.966z"/><path fill="#43a047" d="M40,39.966L24,37c0,0,3.556,3.184,7.444,3.837C35.222,41.491,40,39.966,40,39.966z"/><path fill="#4caf50" d="M47,25c0,0-7.416,0.327-13.112,3.382C28.192,31.436,24,37,24,37s7.201-0.327,12.682-3.164 C42.164,31,47,25,47,25z"/><path fill="#43a047" d="M47,25L24,37c0.023,0.169,7.208-0.278,12.682-3.164C42.164,31,47,25,47,25z"/><path fill="#4caf50" d="M41,10c0,0-7.164,5.111-11.44,11.889S24,37,24,37s7.057-4.889,11.119-11.333 C39.075,19.222,41,10,41,10z"/><path fill="#43a047" d="M41 10L24 37c0 0 7.057-4.889 11.119-11.333C39.075 19.222 41 10 41 10zM24 2v34.951c0 0 4-8.847 4-17.148C28 11.502 24 2 24 2z"/></svg>