<svg xmlns="http://www.w3.org/2000/svg" width="48" height="48" viewBox="0 0 48 48"><path fill="#455A64" d="M30,33.091c0,0-3.321-7.091-12-7.091c-8.679,0-12,7.091-12,7.091V37h24V33.091z"/><path fill="#2196F3" d="M42,33.742c0,0-2.768-5.742-10-5.742s-10,5.742-10,5.742V37h20V33.742z"/><path fill="#FFB74D" d="M24,16c0,3.314-2.686,6-6,6c-3.314,0-6-2.686-6-6s2.686-6,6-6C21.314,10,24,12.686,24,16"/><path fill="#FFA726" d="M32,25c2.762,0,5-2.238,5-5s-2.238-5-5-5s-5,2.238-5,5S29.238,25,32,25"/><path fill="#FFB74D" d="M32,25c2.762,0,5-2.238,5-5s-2.238-5-5-5s-5,2.238-5,5S29.238,25,32,25"/></svg>