<svg xmlns="http://www.w3.org/2000/svg" viewBox="0 0 48 48"><path fill="#ffc107" d="M36,35H12L7,15l10,8l7-13l7,13l10-8L36,35z"/><path fill="#ff9800" d="M12,35h24v5H12V35z"/><path fill="#ffb74d" d="M36,40v-5h-3.812C32.076,35.315,32,35.647,32,36v2v1v1H36z"/><path fill="#ffd740" d="M36,35l3.592-14.369c-0.343-0.235-0.612-0.377-0.698-0.42C38.608,20.068,38.303,20,38.001,20 c-0.65,0-1.283,0.318-1.665,0.891l-2,3C34.117,24.219,34,24.605,34,25v3.268c-0.598,0.346-1,0.992-1,1.732v3.766 c-0.369,0.331-0.641,0.758-0.812,1.234H36z"/><path fill="#ff9800" d="M26 8c0 1.105-.895 2-2 2s-2-.895-2-2 .895-2 2-2S26 6.895 26 8zM44 13c0 1.105-.895 2-2 2s-2-.895-2-2 .895-2 2-2S44 11.895 44 13zM8 13c0 1.105-.895 2-2 2s-2-.895-2-2 .895-2 2-2S8 11.895 8 13z"/><path fill="#90a4ae" d="M35,30h6v7h-6V30z"/><path fill="#b0bec5" d="M41,40h-6c-0.552,0-1-0.448-1-1v-3c0-0.552,0.448-1,1-1h6c0.552,0,1,0.448,1,1v3 C42,39.552,41.552,40,41,40z"/><path fill="#6d4c41" d="M34,38h8v5c0,0.552-0.448,1-1,1h-6c-0.552,0-1-0.448-1-1V38z"/><path fill="#ff3d00" d="M40,30h-4v-5l2-3c0,0,2,1.225,2,2.625C40,26.958,40,30,40,30z"/><path fill="#dd2c00" d="M40,30c0,0,0-3.042,0-5.375C40,23,38,22,38,22v8H40z"/><path fill="#8d6e63" d="M36,38h2v6h-2V38z"/><path fill="#b0bec5" d="M35,30h3v5.25h-3V30z"/><path fill="#cfd8dc" d="M36,35h2v3h-2V35z"/></svg>