<svg xmlns="http://www.w3.org/2000/svg" viewBox="0 0 48 48"><path fill="#ffb74d" d="M19.5,13c-2.483,0-4.5-2.018-4.5-4.5C15,6.017,17.017,4,19.5,4S24,6.017,24,8.5 C24,10.982,21.983,13,19.5,13"/><path fill="#4fc3f7" d="M24,29v2h-9l-3-2v-7.5c0-4.142,3.358-7.5,7.5-7.5l0,0c2.5,2,2.5,2,4.5,5V29z"/><path fill="#ffb74d" d="M29.5,13c-2.483,0-4.5-2.018-4.5-4.5C25,6.017,27.017,4,29.5,4S34,6.017,34,8.5 C34,10.982,31.983,13,29.5,13"/><path fill="#2196f3" d="M37,29l-3,2h-9l-3-2V18.604C22,16.061,24.061,14,26.604,14H29.5c4.142,0,7.5,3.358,7.5,7.5V29z"/><path fill="#4fc3f7" d="M15 31L17 18 25.154 16 23 44 16 44z"/><path fill="#2196f3" d="M25 31L29.572 28.667 34 31 33 44 26 44z"/><path fill="#4fc3f7" d="M19 14H31.311999999999998V18H19z"/><path fill="#4fc3f7" d="M35.845,15.801l-4.534,2.189l-1.739-3.602l4.534-2.189c0.995-0.48,2.19-0.063,2.671,0.931l0,0 C37.257,14.125,36.84,15.321,35.845,15.801z"/></svg>