<svg xmlns="http://www.w3.org/2000/svg" viewBox="0 0 48 48"><path fill="#e7ebed" d="M42 15.5c0 2.5-2 4.5-4.5 4.5S34 18 34 15.5s1-4.5 3.5-4.5S42 13 42 15.5zM6 15.5C6 18 8 20 10.5 20s3.5-2 3.5-4.5S13 11 10.5 11 6 13 6 15.5z"/><path fill="#212121" d="M24,14c-0.1-5.4,3.9-5.8,7.1-6.2C34.9,7.4,37,7,37,3h2c0,6-4.4,6.5-7.7,6.8c-3.5,0.4-5.4,0.7-5.3,4.1 L24,14z"/><path fill="#7986cb" d="M44.2,19c-3.3-5.3-9.7-8-20.2-8S7.1,13.7,3.8,19c-2.4,3.9-3,24,2,24c4,0,2.3-4.1,5-11 c2-5,7.1-6,13.1-6s11.1,1,13.1,6c2.8,6.9,1,11,5,11C47.2,43,46.6,22.9,44.2,19z"/><path fill="#5c6bc0" d="M41.4 16.3c-2.7-1.8-6.3-1.8-8.9.1-3 2.1-4.1 5.7-3.2 8.8.3.9-.3 1.9-1.2 2.3-.9.4-1.8 1.2-2.4 2.2-1.1 1.8-1 4.1.1 5.8 2 3 6.1 3.3 8.5.9 1-1 1.5-2.3 1.6-3.6 0-1 .9-1.8 1.8-1.9 1.8-.2 3.5-.9 4.8-2.3C46.2 25.2 45.7 19.2 41.4 16.3zM6.6 16.3c2.7-1.8 6.3-1.8 8.9.1 3 2.1 4.1 5.7 3.2 8.8-.3.9.3 1.9 1.2 2.3.9.4 1.8 1.2 2.4 2.2 1.1 1.8 1 4.1-.1 5.8-2 3-6.1 3.3-8.5.9-1-1-1.5-2.3-1.6-3.6 0-1-.9-1.8-1.8-1.9-1.8-.2-3.5-.9-4.8-2.3C1.8 25.2 2.3 19.2 6.6 16.3z"/><path fill="#4db6ac" d="M37 20A3 3 0 1 0 37 26A3 3 0 1 0 37 20Z"/><path fill="#e57373" d="M32.5 25A1.5 1.5 0 1 0 32.5 28A1.5 1.5 0 1 0 32.5 25Z"/><path fill="#ffd54f" d="M30.5 35.8L32.8 34.8 33.8 32.5 32.8 30.2 30.5 29.2 28.2 30.2 27.3 32.5 28.2 34.8z"/><path fill="#ffb300" d="M30.5 31A1.5 1.5 0 1 0 30.5 34A1.5 1.5 0 1 0 30.5 31Z"/><path fill="#bdbdbd" d="M11 27.5L14.2 26.2 15.5 23 14.2 19.8 11 18.5 7.8 19.8 6.5 23 7.8 26.2z"/><g><path fill="#e0e0e0" d="M38 18.6c-.1 0-.1 0-.2 0-.5-.1-1.1-.1-1.6 0-.5.1-1.1-.3-1.2-.8-.1-.5.3-1.1.8-1.2.8-.1 1.6-.1 2.4 0 .5.1.9.6.8 1.2C38.9 18.3 38.5 18.6 38 18.6zM42.4 25c-.1 0-.1 0-.2 0-.5-.1-.9-.6-.8-1.2.1-.5.1-1.1 0-1.6s.3-1.1.8-1.2c.5-.1 1.1.3 1.2.8.1.8.1 1.6 0 2.4C43.3 24.7 42.9 25 42.4 25zM11 20.2A2.8 2.8 0 1 0 11 25.8 2.8 2.8 0 1 0 11 20.2zM24 22A1 1 0 1 0 24 24 1 1 0 1 0 24 22zM19 14H29V16H19zM20.5 32.5v1c0 .3-.2.5-.5.5h-5c-.3 0-.5-.2-.5-.5v-1c0-.3.2-.5.5-.5h5C20.3 32 20.5 32.2 20.5 32.5z"/><path fill="#e0e0e0" d="M17,30h1c0.3,0,0.5,0.2,0.5,0.5v5c0,0.3-0.2,0.5-0.5,0.5h-1c-0.3,0-0.5-0.2-0.5-0.5v-5 C16.5,30.2,16.7,30,17,30z"/></g></svg>