<svg xmlns="http://www.w3.org/2000/svg" width="475.44" height="240.601" viewBox="0 0 475.44 240.601">
  <g id="Group_165" data-name="Group 165" transform="matrix(0.985, -0.174, 0.174, 0.985, 1431.209, -8828.276)">
    <path id="Arm" d="M13.659,78.992l52.6-43.035q21.939-7.171,36.4-16.891c2.239-2.266,4.853-6.754-4.859-5.493s-19.985,2.15-21.5-1.105S80.466,4.925,77.511.58q-2.955-4.345-24.52,23.853L0,49.734Z" transform="translate(-2644.538 8742.477) rotate(-164)" fill="#915b3c"/>
    <path id="Coat_Back" data-name="Coat Back" d="M0,191.745l14.571,3.831C73.6,152.966,104.115,63.853,175.611,21.488L161.174,0C43.2,4.24,4.553,112.81,0,191.745Z" transform="translate(-2525.901 8742.477) rotate(-166)" fill="#8813c6"/>
    <g id="Group_164" data-name="Group 164" transform="translate(-2977.765 8448.096)">
      <path id="Skin" d="M12.617,0,69.691,41.893q23.219,6.263,38.8,15.584c2.453,2.235,5.418,6.76-4.756,5.978s-20.912-1.147-22.316,2.322,4.753,7.617,1.915,12.3Q80.494,82.755,56.518,54.6L0,31.175Z" transform="translate(123.029 173.026) rotate(9)" fill="#b28b67"/>
      <path id="Coat_Back-2" data-name="Coat Back" d="M0,3.991,15.182,0c61.507,44.377,93.3,137.189,167.788,181.311l-15.043,22.381C45.006,199.28,4.741,86.2,0,3.991Z" transform="matrix(0.97, 0.242, -0.242, 0.97, 49.277, 0)" fill="#ffcd59"/>
    </g>
  </g>
</svg>
