<svg xmlns="http://www.w3.org/2000/svg" viewBox="0 0 48 48"><polygon fill="#1e88e5" points="39,11 26,11 24,9 28,4 37,4 41,9"/><rect width="17" height="31" x="24" y="9" fill="#90caf9"/><rect width="3" height="7" x="36" y="12" fill="#1e88e5"/><rect width="3" height="7" x="31" y="12" fill="#1e88e5"/><rect width="3" height="7" x="26" y="12" fill="#1e88e5"/><g><path fill="#3f51b5" d="M27,24l8-3l8,3v20H27V24z"/><rect width="4" height="3" x="30" y="32" fill="#9fa8da"/><rect width="4" height="3" x="36" y="32" fill="#9fa8da"/><rect width="4" height="3" x="30" y="27" fill="#9fa8da"/><rect width="4" height="3" x="36" y="27" fill="#9fa8da"/><rect width="4" height="3" x="30" y="37" fill="#9fa8da"/><rect width="4" height="3" x="36" y="37" fill="#9fa8da"/></g><g><path fill="#ffca28" d="M5,44h22V19l-11-6L5,19V44z"/><path fill="#fb8c00" d="M10,21L10,21c1.105,0,2,0.895,2,2v3H8v-3C8,21.895,8.895,21,10,21z"/><path fill="#fb8c00" d="M16,21L16,21c1.105,0,2,0.895,2,2v3h-4v-3C14,21.895,14.895,21,16,21z"/><path fill="#fb8c00" d="M22,21L22,21c1.105,0,2,0.895,2,2v3h-4v-3C20,21.895,20.895,21,22,21z"/><path fill="#fb8c00" d="M10,28L10,28c1.105,0,2,0.895,2,2v3H8v-3C8,28.895,8.895,28,10,28z"/><path fill="#fb8c00" d="M16,28L16,28c1.105,0,2,0.895,2,2v3h-4v-3C14,28.895,14.895,28,16,28z"/><path fill="#fb8c00" d="M22,28L22,28c1.105,0,2,0.895,2,2v3h-4v-3C20,28.895,20.895,28,22,28z"/><path fill="#fb8c00" d="M10,35L10,35c1.105,0,2,0.895,2,2v3H8v-3C8,35.895,8.895,35,10,35z"/><path fill="#fb8c00" d="M16,35L16,35c1.105,0,2,0.895,2,2v3h-4v-3C14,35.895,14.895,35,16,35z"/><path fill="#fb8c00" d="M22,35L22,35c1.105,0,2,0.895,2,2v3h-4v-3C20,35.895,20.895,35,22,35z"/><polygon fill="#fb8c00" points="5,21 5,17 16,11 27,17 27,21 16,15"/></g></svg>