<svg xmlns="http://www.w3.org/2000/svg" viewBox="0 0 48 48"><path fill="#455a64" d="M36,4H26c0,1.1-0.9,2-2,2s-2-0.9-2-2H12C9.8,4,8,5.8,8,8v32c0,2.2,1.8,4,4,4h24c2.2,0,4-1.8,4-4V8 C40,5.8,38.2,4,36,4z"/><path fill="#fff" d="M36,41H12c-0.6,0-1-0.4-1-1V8c0-0.6,0.4-1,1-1h24c0.6,0,1,0.4,1,1v32C37,40.6,36.6,41,36,41z"/><path fill="#90a4ae" d="M26,4c0,1.1-0.9,2-2,2s-2-0.9-2-2h-7v4c0,1.1,0.9,2,2,2h14c1.1,0,2-0.9,2-2V4H26z"/><path fill="#90a4ae" d="M24,0c-2.2,0-4,1.8-4,4s1.8,4,4,4s4-1.8,4-4S26.2,0,24,0z M24,6c-1.1,0-2-0.9-2-2s0.9-2,2-2 s2,0.9,2,2S25.1,6,24,6z"/><path fill="#ffa726" d="M22,17.5c0,1.38-1.119,2.5-2.5,2.5S17,18.88,17,17.5c0-1.381,1.119-2.5,2.5-2.5S22,16.119,22,17.5"/><path fill="#33691e" d="M24,23.329c0,0-1.246-2.329-4.5-2.329c-3.255,0-4.5,2.329-4.5,2.329V25h9V23.329z"/><path fill="#cfd8dc" d="M27 17H33V19H27zM27 22H33V24H27zM15 29H33V31H15zM15 34H33V36H15z"/></svg>