<svg xmlns="http://www.w3.org/2000/svg" viewBox="0 0 48 48"><path fill="#37474f" d="M23,46c-0.98,0-1.95-0.03-2.9-0.1h-0.05l0.14-2h0.05c1.52,0.11,3.11,0.13,4.69,0.05h0.05L24.99,44	l0.1,1.95l-0.07-0.05l0.01,0.05C24.34,45.98,23.66,46,23,46z M27.93,45.7l-0.25-1.98l0.05-0.01c1.61-0.2,3.15-0.5,4.57-0.9h0.06	l0.02,0.04l0.52,1.87l-0.02,0.01v0.37l-0.09-0.35c-1.5,0.42-3.11,0.74-4.81,0.95H27.93z M17.21,45.59l-0.06-0.01	c-1.72-0.26-3.35-0.63-4.84-1.09l-0.05-0.02l0.6-1.91l0.05,0.02c1.39,0.44,2.92,0.78,4.53,1.02l0.06,0.01L17.21,45.59z M35.64,43.78	l-0.77-1.84l0.05-0.02c1.58-0.66,2.88-1.46,3.76-2.31l0.08-0.08l0.01,0.09l1.35,1.39l-0.05,0.03c-1.07,1.04-2.54,1.95-4.38,2.72	L35.64,43.78z M9.54,43.42L9.49,43.4c-1.86-0.88-3.28-1.91-4.22-3.07l-0.03-0.04l1.56-1.26l0.03,0.04c0.73,0.91,1.94,1.78,3.51,2.52	l0.05,0.02l-0.02,0.05l-0.82,1.76L9.54,43.42L9.54,43.42z M41.84,38.21l-1.94-0.5l0.02-0.04C39.97,37.44,40,37.23,40,37	c0-0.89-0.46-1.78-1.37-2.65l-0.03-0.04l0.02-0.04l1.35-1.41L40,32.89c1.31,1.24,2,2.66,2,4.11c0,0.39-0.05,0.78-0.15,1.16	L41.84,38.21z M4,37.15v-0.06c0-0.03,0-0.06,0-0.09c0-1.73,0.96-3.37,2.77-4.77l0.04-0.03l1.22,1.58l-0.04,0.03	C6.68,34.83,6,35.93,6,37c0,0.02,0,0.03,0,0.05l-0.05,0.06L4,37.15z"/><path fill="#ffb74d" d="M14.5,12C12.018,12,10,9.979,10,7.498S12.018,3,14.5,3C16.981,3,19,5.018,19,7.498 S16.981,12,14.5,12"/><path fill="#ffb74d" d="M7,20v7l3,2v4l1,7h7.25L19,33v-4l3-2v-7c0-4.016-2.388-7-7.5-7C9.387,13,7,15.984,7,20"/><path fill="#4caf50" d="M22,20h-3v9h-9v-9H7c0-2.67,1.05-4.88,3.26-6.06c0.1-0.06,0.2-0.11,0.31-0.16 c0.93-0.44,2.05-0.71,3.36-0.77C14.12,13,14.31,13,14.5,13s0.38,0,0.57,0.01c1.31,0.06,2.43,0.33,3.36,0.77 c0.11,0.05,0.21,0.1,0.31,0.16C20.95,15.12,22,17.33,22,20z"/><path fill="#3f51b5" d="M10,27h9v6h-9V27z"/><path fill="#1a237e" d="M13.5,33l1-4l1,4H13.5z"/><path fill="#2e7d32" d="M21.776,18H19v2h3C22,19.326,21.922,18.654,21.776,18z M10,18H7.224C7.078,18.654,7,19.326,7,20h3 V18z"/><rect width="2" height="7" x="13.5" y="33" fill="#ffa726"/><path fill="#2e7d32" d="M18.74,13.94C17.49,14.61,16.04,15,14.5,15s-2.99-0.39-4.24-1.06c0.1-0.06,0.2-0.11,0.31-0.16 c0.93-0.44,2.05-0.71,3.36-0.77C14.12,13,14.31,13,14.5,13s0.38,0,0.57,0.01c1.31,0.06,2.43,0.33,3.36,0.77 C18.54,13.83,18.64,13.88,18.74,13.94z"/><g><path fill="#ffb74d" d="M24,21.001V28l2.558,1.816l0.724,3.91L28.688,41h5.625l1.493-7.273l0.638-3.91L39,28v-6.999 c0-3.637-2.385-7-7.5-7C26.388,14.001,24,17.364,24,21.001z"/><path fill="#ffa726" d="M30.5,31h2v10h-2V31z"/><path fill="#f50057" d="M39,21c0-3.637-2.343-7-7.458-7C26.43,14,24,17.363,24,21h2.88l-1.943,11.001c0,0,1.45,2,6.563,2 c5.115,0,6.563-2,6.563-2L36.255,21H39z"/><path fill="#ffb74d" d="M36,7.5c0,2.48-2.02,4.5-4.5,4.5S27,9.98,27,7.5c0-0.17,0.01-0.34,0.03-0.5 c0.23-2.07,1.88-3.73,3.95-3.97C31.15,3.01,31.32,3,31.5,3s0.36,0.01,0.53,0.03c0.13,0.02,0.25,0.04,0.37,0.06 c1.89,0.39,3.36,1.97,3.57,3.91C35.99,7.16,36,7.33,36,7.5z"/><path fill="#795548" d="M28.5,6.001c-1.819,0-5,0.716-5,5.999h3c0,0,0-4.999,2-4.999V6.001z M34.5,6.001 c1.819,0,5,0.716,5,5.999h-3c0,0,0-4.999-2-4.999V6.001z"/><path fill="#795548" d="M35.97,7h-8.94c0.23-2.07,1.88-3.73,3.95-3.97C31.15,3.01,31.32,3,31.5,3s0.36,0.01,0.53,0.03 c0.13,0.02,0.25,0.04,0.37,0.06C34.29,3.48,35.76,5.06,35.97,7z"/></g></svg>