<svg xmlns="http://www.w3.org/2000/svg" viewBox="0 0 48 48"><path fill="#ffcc80" d="M18.993,44v-4.631l-2.616,0.533c-2.865,0.586-5.599-1.461-5.841-4.375l-0.544-6.52l-2.896-1.207 c-1.002-0.418-1.4-1.627-0.842-2.559l3.738-6.231C10.62,11.455,14.91,4,26.014,4C37.444,4,43,12.441,43,21.008 c0,3.65-1.348,6.867-3.343,9.615c-1.794,2.467-2.662,5.487-2.662,8.538V44H18.993z"/><path fill="#fff" d="M26 10A10 10 0 1 0 26 30A10 10 0 1 0 26 10Z"/><path fill="#f44336" d="M24 14H28V26H24z"/><path fill="#f44336" d="M20 18H32V22H20z"/></svg>