<svg xmlns="http://www.w3.org/2000/svg" width="48" height="48" viewBox="0 0 48 48"><path fill="#FFC107" d="M20,9v26v2c0,0,1,3,11,3s11-3,11-3v-4V9H20z"/><path fill="#FFC107" d="M31 4A11 3 0 1 0 31 10A11 3 0 1 0 31 4Z"/><path fill="#FF9800" d="M20,13c0,0,1,3,11,3s11-3,11-3v3c0,0-1,3-11,3s-11-3-11-3V13z M20,22c0,0,1,3,11,3s11-3,11-3v-3c0,0-1,3-11,3s-11-3-11-3V22z M20,28c0,0,1,3,11,3s11-3,11-3v-3c0,0-1,3-11,3s-11-3-11-3V28z M20,34c0,0,1,3,11,3s11-3,11-3v-3c0,0-1,3-11,3s-11-3-11-3V34z M20,10c0,0,1,3,11,3s11-3,11-3V7c0,0-1,3-11,3S20,7,20,7V10z"/><path fill="#F57C00" d="M28,31.899V36v3.001v0.891C28.901,39.958,29.887,40,31,40c0.353,0,0.67-0.012,1-0.02v-0.979V36v-4.101c0-5.154-6.604-6.149-11.943-6.782L20,29.015C24.615,29.372,28,30.526,28,31.899z"/><path fill="#D66805" d="M31 31c.326 0 .621-.011.925-.018-.217-1.27-.899-2.238-1.866-3-7.993-.164-9.708-2.337-10.002-2.865l-.027 1.9c4.6.359 7.971 1.512 7.971 2.882v.992C28.901 30.958 29.887 31 31 31zM28 33.892V36v.892C28.901 36.958 29.887 37 31 37c.353 0 .67-.012 1-.02V36v-2.02C31.67 33.988 31.353 34 31 34 29.887 34 28.901 33.958 28 33.892z"/><g><path fill="#CFD8DC" d="M6 29H28V38.001H6z"/><path fill="#CFD8DC" d="M6 36c0 0 1 3 11 3s11-3 11-3v4c0 0-1 3-11 3S6 40 6 40V36zM17 25A11 3 0 1 0 17 31 11 3 0 1 0 17 25z"/></g><g><path fill="#90A4AE" d="M6 28c0 0 1 3 11 3s11-3 11-3v3c0 0-1 3-11 3S6 31 6 31V28zM6 34c0 0 1 3 11 3s11-3 11-3v3c0 0-1 3-11 3S6 37 6 37V34z"/></g></svg>