<svg xmlns="http://www.w3.org/2000/svg" viewBox="0 0 48 48"><path fill="#ff9800" d="M24,39c-5,0-5-6-5-6v-6h10v6C29,33,29,39,24,39z"/><path fill="#ffb74d" d="M33,15c0-7.6-18-5-18,0v7c0,5,4,9,9,9s9-4,9-9V15z"/><path fill="#784719" d="M27,21c0-0.6,0.4-1,1-1s1,0.4,1,1s-0.4,1-1,1S27,21.6,27,21"/><path fill="#784719" d="M19,21c0,0.6,0.4,1,1,1s1-0.4,1-1s-0.4-1-1-1S19,20.4,19,21"/><path fill="#8bc34a" d="M39.97,45H8.03C8.67,34.88,19,33,19,33s1,4,5,4s5-4,5-4S39.33,34.88,39.97,45z"/><path fill="#424242" d="M24,6c-6.1,0-10,4.9-10,11v3h2v-4l12-4l4,4v4h2v-3c0-4-1-9-6-10h-1L24,6z"/><path fill="#0097a7" d="M35,20.318h-2v-3.637c0-4.962-4.037-9-9-9s-9,4.038-9,9v3.637h-2v-3.637c0-6.065,4.935-11,11-11 s11,4.935,11,11V20.318z"/><path fill="#006064" d="M15.5,25H13c-1.1,0-2-0.9-2-2v-4c0-1.1,0.9-2,2-2h2v5C15,23.05,15.18,24.06,15.5,25z"/><path fill="#006064" d="M37,19v4c0,1.1-0.9,2-2,2h-2.5c0.32-0.94,0.5-1.95,0.5-3v-5h2C36.1,17,37,17.9,37,19z"/><path fill="#9c27b0" d="M10.054,9c-1.075,0-1.946,0.871-1.946,1.946s0.871,1.946,1.946,1.946S12,12.021,12,10.946 S11.129,9,10.054,9z"/><rect width="1" height="7.139" x="11" y="3.861" fill="#9c27b0"/><path fill="#9c27b0" d="M4.054,11.108c-1.075,0-1.946,0.871-1.946,1.946S2.979,15,4.054,15S6,14.129,6,13.054 S5.129,11.108,4.054,11.108z"/><rect width="1" height="7.139" x="5" y="5.969" fill="#9c27b0"/><polygon fill="#9c27b0" points="5,9 12,6 12,3 5,6"/><path fill="#4a148c" d="M39.054,10.108c-1.075,0-1.946,0.871-1.946,1.946S37.979,14,39.054,14S41,13.129,41,12.054 S40.129,10.108,39.054,10.108z"/><rect width="1" height="7.139" x="40" y="4.969" fill="#4a148c"/><polygon fill="#4a148c" points="40,7 45,8 45,5 40,4"/></svg>