<svg xmlns="http://www.w3.org/2000/svg" viewBox="0 0 42 36.657"><g data-name="Слой 2"><path fill="#455a64" d="M22.478,13.028,15,32.657l17,1L23.555,13.015A.579.579,0,0,0,22.478,13.028Z"/><path fill="#546e7a" d="M0,26.657,6.355,11.224a.9.9,0,0,1,1.585-.157L9,12.657,13.484,1a.564.564,0,0,1,1.05-.007L26,29.657Z"/><path fill="#7cb342" d="M42,29.657H34a9.863,9.863,0,0,1-6-2,19.191,19.191,0,0,0-2.691-2.328A8.681,8.681,0,0,0,21,24.59c-2.836,0-6,1.067-8,.067-1.771-.886-4.02-3-6-3-4.7,0-7,5-7,5v9.891H42Z"/><path fill="#689f38" d="M42,32.657v4H0V32.548s5.25-4,10-4C24,28.548,25.625,32.657,42,32.657Z"/><path fill="#ff9800" d="M30,1.657h8v8H30Z"/><path fill="#ff9800" d="M34,0l5.657,5.657L34,11.314,28.343,5.657Z"/><path fill="#ffeb3b" d="M34,3.657a2,2,0,1,0,2,2A2,2,0,0,0,34,3.657Z"/><rect width="2" height="4" x="36" y="25.657" fill="#795548"/><polygon fill="#009688" points="37 12.657 32 26.657 42 26.657 37 12.657"/></g></svg>