<svg xmlns="http://www.w3.org/2000/svg" width="48" height="48" viewBox="0 0 48 48"><path fill="#FFB74D" d="M24 14c-3.309 0-6-2.692-6-6s2.691-6 6-6 6 2.692 6 6S27.309 14 24 14M15 24v8l3 2 1 4 1 8h8l1-8 1-4 3-2v-8c0-4.418-3-9-9-9S15 19.582 15 24"/><path fill="#4CAF50" d="M30,24h3c0-4.418-3-9-9-9s-9,4.582-9,9h3v10h12V24z"/><path fill="#3F51B5" d="M18 31H30V38H18z"/><path fill="#1A237E" d="M23 38L24 34 25 38z"/><path fill="#FFA726" d="M23 38H25V46H23z"/><g><path fill="#2E7D32" d="M18 22h-2.785C15.077 22.66 15 23.331 15 24h3V22zM30 22v2h3c0-.669-.077-1.34-.215-2H30zM24 15c-1.57 0-2.931.32-4.09.863C21.108 16.58 22.505 17 24 17s2.892-.42 4.09-1.137C26.931 15.32 25.57 15 24 15z"/></g></svg>