<svg xmlns="http://www.w3.org/2000/svg" viewBox="0 0 48 48"><path fill="#c67305" d="M31 34.2c-.1 0-.2 0-.3-.1-.5-.2-.8-.7-.6-1.3l.2-.5c.2-.5.7-.8 1.3-.6.5.2.8.7.6 1.3l-.2.5C31.8 33.9 31.4 34.2 31 34.2zM31.9 31.7c-.1 0-.2 0-.3-.1-.5-.2-.8-.7-.6-1.3l.3-1c.2-.5.7-.8 1.3-.6.5.2.8.7.6 1.3l-.3 1C32.7 31.4 32.3 31.7 31.9 31.7zM32.9 28.7c-.1 0-.2 0-.3-.1-.5-.2-.8-.7-.6-1.3l.3-1c.2-.5.7-.8 1.3-.6.5.2.8.7.6 1.3l-.3 1C33.7 28.4 33.3 28.7 32.9 28.7zM33.9 25.6c-.1 0-.2 0-.3-.1-.5-.2-.8-.7-.6-1.3l.3-1c.2-.5.7-.8 1.3-.6.5.2.8.7.6 1.3l-.3 1C34.7 25.4 34.3 25.6 33.9 25.6zM35 22.6c-.1 0-.2 0-.3-.1-.5-.2-.8-.7-.6-1.3l.3-1c.2-.5.7-.8 1.3-.6.5.2.8.7.6 1.3l-.3 1C35.8 22.3 35.4 22.6 35 22.6z"/><path fill="#c67305" d="M36.3 19.6c-.1 0-.1 0-.2 0-.2 0-.3 0-.5 0-.5-.2-.8-.7-.6-1.3l.2-.5c.1-.4.5-.7.9-.7 0 0 0 0 0 0 .4 0 .8.3.9.7l.2.5c.2.5-.1 1.1-.6 1.3C36.5 19.6 36.4 19.6 36.3 19.6zM40.2 31.7c-.4 0-.8-.3-1-.7l-.3-1c-.2-.5.1-1.1.6-1.3.5-.2 1.1.1 1.3.6l.3 1c.2.5-.1 1.1-.6 1.3C40.4 31.7 40.3 31.7 40.2 31.7zM39.2 28.6c-.4 0-.8-.3-1-.7l-.3-1c-.2-.5.1-1.1.6-1.3.5-.2 1.1.1 1.3.6l.3 1c.2.5-.1 1.1-.6 1.3C39.4 28.6 39.3 28.6 39.2 28.6zM38.3 25.6c-.4 0-.8-.3-1-.7l-.3-1c-.2-.5.1-1.1.6-1.3.5-.2 1.1.1 1.3.6l.3 1c.2.5-.1 1.1-.6 1.3C38.5 25.6 38.4 25.6 38.3 25.6zM37.3 22.6c-.4 0-.8-.3-1-.7l-.3-1c-.2-.5.1-1.1.6-1.3.5-.2 1.1.1 1.3.6l.3 1c.2.5-.1 1.1-.6 1.3C37.5 22.6 37.4 22.6 37.3 22.6zM41 34.2c-.4 0-.8-.3-1-.7L39.9 33c-.2-.5.1-1.1.6-1.3.5-.2 1.1.1 1.3.6l.2.5c.2.5-.1 1.1-.6 1.3C41.2 34.1 41.1 34.2 41 34.2zM7 34.2c-.1 0-.2 0-.3-.1-.5-.2-.8-.7-.6-1.3l.2-.5c.2-.5.7-.8 1.3-.6C8 31.9 8.3 32.5 8.1 33l-.2.5C7.8 33.9 7.4 34.2 7 34.2zM7.9 31.7c-.1 0-.2 0-.3-.1-.5-.2-.8-.7-.6-1.3l.3-1c.2-.5.7-.8 1.3-.6C9 28.9 9.3 29.5 9.1 30l-.3 1C8.7 31.4 8.3 31.7 7.9 31.7zM8.9 28.7c-.1 0-.2 0-.3-.1-.5-.2-.8-.7-.6-1.3l.3-1c.2-.5.7-.8 1.3-.6.5.2.8.7.6 1.3l-.3 1C9.7 28.4 9.3 28.7 8.9 28.7zM9.9 25.6c-.1 0-.2 0-.3-.1-.5-.2-.8-.7-.6-1.3l.3-1c.2-.5.7-.8 1.3-.6.5.2.8.7.6 1.3l-.3 1C10.7 25.4 10.3 25.6 9.9 25.6zM11 22.6c-.1 0-.2 0-.3-.1-.5-.2-.8-.7-.6-1.3l.3-1c.2-.5.7-.8 1.3-.6.5.2.8.7.6 1.3l-.3 1C11.8 22.3 11.4 22.6 11 22.6z"/><path fill="#c67305" d="M12.3,19.6c-0.1,0-0.1,0-0.2,0c-0.2,0-0.3,0-0.5,0c-0.5-0.2-0.8-0.7-0.6-1.3l0.2-0.5 c0.1-0.4,0.5-0.7,0.9-0.7c0,0,0,0,0,0c0.4,0,0.8,0.3,0.9,0.7l0.2,0.5c0.2,0.5-0.1,1.1-0.6,1.3C12.5,19.6,12.4,19.6,12.3,19.6z"/><path fill="#c67305" d="M16.2 31.7c-.4 0-.8-.3-1-.7l-.3-1c-.2-.5.1-1.1.6-1.3s1.1.1 1.3.6l.3 1c.2.5-.1 1.1-.6 1.3C16.4 31.7 16.3 31.7 16.2 31.7zM15.2 28.6c-.4 0-.8-.3-1-.7l-.3-1c-.2-.5.1-1.1.6-1.3.5-.2 1.1.1 1.3.6l.3 1c.2.5-.1 1.1-.6 1.3C15.4 28.6 15.3 28.6 15.2 28.6zM14.3 25.6c-.4 0-.8-.3-1-.7l-.3-1c-.2-.5.1-1.1.6-1.3.5-.2 1.1.1 1.3.6l.3 1c.2.5-.1 1.1-.6 1.3C14.5 25.6 14.4 25.6 14.3 25.6zM13.3 22.6c-.4 0-.8-.3-1-.7l-.3-1c-.2-.5.1-1.1.6-1.3.5-.2 1.1.1 1.3.6l.3 1c.2.5-.1 1.1-.6 1.3C13.5 22.6 13.4 22.6 13.3 22.6zM17 34.2c-.4 0-.8-.3-1-.7L15.9 33c-.2-.5.1-1.1.6-1.3.5-.2 1.1.1 1.3.6l.2.5c.2.5-.1 1.1-.6 1.3C17.2 34.1 17.1 34.2 17 34.2zM36 17.2c-2.1 0-4-1-5.8-2-1.9-1-3.8-2-6.2-2-.6 0-1-.4-1-1s.4-1 1-1c2.9 0 5.2 1.2 7.2 2.3 1.7.9 3.2 1.7 4.8 1.7.5 0 2-.2 2-2 0-.8-.5-1-1-1-.4 0-1 .2-1 1 0 .6-.4 1-1 1s-1-.4-1-1c0-2.2 1.8-3 3-3s3 .8 3 3C40 16.1 37.6 17.2 36 17.2z"/><path fill="#c67305" d="M12 17.2c-1.6 0-4-1.1-4-4 0-2.2 1.8-3 3-3s3 .8 3 3c0 .6-.4 1-1 1s-1-.4-1-1c0-.8-.6-1-1-1-.4 0-1 .2-1 1 0 1.9 1.7 2 2 2 1.6 0 3.1-.8 4.8-1.7 2-1.1 4.3-2.3 7.2-2.3.6 0 1 .4 1 1s-.4 1-1 1c-2.4 0-4.3 1-6.2 2C16 16.2 14.1 17.2 12 17.2zM22 7.2C22 6.1 24 4 24 4s2 2.1 2 3.2-.9 2-2 2S22 8.3 22 7.2zM30 42c0-1.1-.9-2-2-2h-8c-1.1 0-2 .9-2 2v1h12V42z"/><path fill="#ffc107" d="M30 34c0 0 1 4 6 4s6-4 6-4H30zM6 34c0 0 1 4 6 4s6-4 6-4H6zM23 13.2h2V40h-2V13.2z"/><path fill="#ffc107" d="M27 12.2c0 1.7-1.3 3-3 3s-3-1.3-3-3 1.3-3 3-3S27 10.5 27 12.2zM25 35h-2c0 0 0 5-3 5s11 0 8 0S25 35 25 35z"/></svg>