<svg xmlns="http://www.w3.org/2000/svg" viewBox="0 0 48 48"><path fill="#ff3d00" d="M46,17.89c0,2.03-0.63,4.09-1.69,6.11l-0.04,0.08c-0.33,0.64-0.71,1.28-1.12,1.91L43.14,26 C38.18,33.6,28.19,40.38,25,42.43c-0.64,0.4-1,0.62-1,0.62s-0.36-0.22-1-0.63C19.82,40.37,9.86,33.57,4.89,26 c-0.44-0.66-0.84-1.33-1.19-2C2.64,21.97,2,19.91,2,17.89C2,11.32,7.37,6,14,6c3.59,0,6.81,1.57,9,4.04c0.36,0.4,0.7,0.83,1,1.28 c0.3-0.45,0.64-0.88,1-1.28C27.19,7.57,30.41,6,34,6C40.63,6,46,11.32,46,17.89z"/><path fill="#d50000" d="M30,16c0,2.21-1.79,4-4,4c-0.34,0-0.68-0.04-1-0.13V33h-1.14l-0.53-0.48C23.07,32.28,22.62,32,22,32 c-1.1,0-2,0.9-2,2c0,1.1,0.9,2,2,2c0.62,0,1.07-0.28,1.33-0.52L23.86,35H25v7.43c-0.64,0.4-1,0.62-1,0.62s-0.36-0.22-1-0.63v-4.55 C22.68,37.96,22.34,38,22,38c-2.21,0-4-1.79-4-4c0-2.21,1.79-4,4-4c0.34,0,0.68,0.04,1,0.13V17h1.14l0.53,0.48 C24.93,17.72,25.38,18,26,18c1.1,0,2-0.9,2-2c0-1.1-0.9-2-2-2c-0.62,0-1.07,0.28-1.33,0.52L24.14,15H23v-4.96 c0.36,0.4,0.7,0.83,1,1.28c0.3-0.45,0.64-0.88,1-1.28v2.09c0.32-0.09,0.66-0.13,1-0.13C28.21,12,30,13.79,30,16z"/><path fill="#d50000" d="M44.31,24l-0.04,0.08l-1.12,1.91L43.14,26h-6.27c0.09,0.32,0.13,0.66,0.13,1c0,2.21-1.79,4-4,4 s-4-1.79-4-4c0-0.34,0.04-0.68,0.13-1H16v-1.14l0.48-0.53C16.81,23.96,17,23.49,17,23c0-1.1-0.9-2-2-2s-2,0.9-2,2 c0,0.49,0.19,0.96,0.52,1.33L14,24.86V26H4.89c-0.44-0.66-0.84-1.33-1.19-2h7.43C11.04,23.68,11,23.34,11,23c0-2.21,1.79-4,4-4 s4,1.79,4,4c0,0.34-0.04,0.68-0.13,1H32v1.14l-0.48,0.53C31.19,26.04,31,26.51,31,27c0,1.1,0.9,2,2,2s2-0.9,2-2 c0-0.49-0.19-0.96-0.52-1.33L34,25.14V24H44.31z"/></svg>