<svg xmlns="http://www.w3.org/2000/svg" viewBox="0 0 100.51 100.51"><defs><style>.cls-1{fill:#fff;}.cls-2{fill:#8813c6;}.cls-3{fill:#8be2d8;}.cls-4{fill:#010686;}</style></defs><g id="Layer_2" data-name="Layer 2"><g id="Layer_1-2" data-name="Layer 1"><circle class="cls-1" cx="50.26" cy="50.26" r="50.26"/><path class="cls-2" d="M68.37,47.76A4.19,4.19,0,0,1,68,49.5L55.61,76a5.68,5.68,0,0,1-4.87,3,7.55,7.55,0,0,0,1.53-.31c2.92-1,4.35-3.74,3.22-6.2l-5.23-11.2L57.4,46c1.14-2.45,4.44-3.67,7.36-2.7A4.86,4.86,0,0,1,68.37,47.76Z"/><path class="cls-2" d="M77,78.71h0c2.92-1,4.36-3.74,3.21-6.2L67.89,46c-1.15-2.45-4.45-3.66-7.37-2.7h0c-2.92,1-4.36,3.74-3.21,6.19L69.67,76C70.82,78.46,74.12,79.67,77,78.71Z"/><path class="cls-3" d="M23.47,78.71h0c-2.92-1-4.36-3.74-3.21-6.2L32.62,46c1.15-2.45,4.45-3.66,7.37-2.7h0c2.92,1,4.36,3.74,3.21,6.19L30.84,76C29.69,78.46,26.39,79.67,23.47,78.71Z"/><path class="cls-4" d="M52.27,78.71a7.55,7.55,0,0,1-1.53.31,7.85,7.85,0,0,1-1,0,7.29,7.29,0,0,1-1.53-.31c-2.92-1-4.36-3.74-3.21-6.2l5.23-11.2,5.23,11.2C56.62,75,55.19,77.74,52.27,78.71Z"/><circle class="cls-2" cx="38.1" cy="28.61" r="7.13"/><path class="cls-3" d="M48.24,78.71a7.29,7.29,0,0,0,1.53.31,5.68,5.68,0,0,1-4.87-3L32.54,49.5a4.05,4.05,0,0,1-.4-1.74,4.87,4.87,0,0,1,3.61-4.45c2.92-1,6.22.25,7.37,2.7l7.14,15.3L45,72.51C43.88,75,45.32,77.74,48.24,78.71Z"/><circle class="cls-4" cx="63.64" cy="28.61" r="7.13"/></g></g></svg>